G04 #@! TF.FileFunction,Copper,L1,Top,Signal*
%FSLAX46Y46*%
G04 Gerber Fmt 4.6, Leading zero omitted, Abs format (unit mm)*
G04 Created by KiCad (PCBNEW 4.0.7+dfsg1-1) date Sat Mar 10 17:30:55 2018*
%MOMM*%
%LPD*%
G01*
G04 APERTURE LIST*
%ADD10C,0.100000*%
%ADD11C,3.000000*%
%ADD12R,3.000000X3.000000*%
%ADD13R,1.800000X1.800000*%
%ADD14C,1.800000*%
%ADD15C,5.999480*%
%ADD16C,0.254000*%
G04 APERTURE END LIST*
D10*
D11*
X140165000Y-105410000D03*
D12*
X160655000Y-105410000D03*
D13*
X165735000Y-92710000D03*
D14*
X168275000Y-92710000D03*
D13*
X133985000Y-92710000D03*
D14*
X131445000Y-92710000D03*
D15*
X149860000Y-92075000D03*
D16*
G36*
X174378262Y-96520000D02*
X162125321Y-117350000D01*
X137594679Y-117350000D01*
X130819865Y-105832815D01*
X138029630Y-105832815D01*
X138353980Y-106617800D01*
X138954041Y-107218909D01*
X139738459Y-107544628D01*
X140587815Y-107545370D01*
X141372800Y-107221020D01*
X141973909Y-106620959D01*
X142299628Y-105836541D01*
X142300370Y-104987185D01*
X141976020Y-104202200D01*
X141684330Y-103910000D01*
X158507560Y-103910000D01*
X158507560Y-106910000D01*
X158551838Y-107145317D01*
X158690910Y-107361441D01*
X158903110Y-107506431D01*
X159155000Y-107557440D01*
X162155000Y-107557440D01*
X162390317Y-107513162D01*
X162606441Y-107374090D01*
X162751431Y-107161890D01*
X162802440Y-106910000D01*
X162802440Y-103910000D01*
X162758162Y-103674683D01*
X162619090Y-103458559D01*
X162406890Y-103313569D01*
X162155000Y-103262560D01*
X159155000Y-103262560D01*
X158919683Y-103306838D01*
X158703559Y-103445910D01*
X158558569Y-103658110D01*
X158507560Y-103910000D01*
X141684330Y-103910000D01*
X141375959Y-103601091D01*
X140591541Y-103275372D01*
X139742185Y-103274630D01*
X138957200Y-103598980D01*
X138356091Y-104199041D01*
X138030372Y-104983459D01*
X138029630Y-105832815D01*
X130819865Y-105832815D01*
X125341738Y-96520000D01*
X127404096Y-93013991D01*
X129909735Y-93013991D01*
X130142932Y-93578371D01*
X130574357Y-94010551D01*
X131138330Y-94244733D01*
X131748991Y-94245265D01*
X132313371Y-94012068D01*
X132481613Y-93844120D01*
X132481838Y-93845317D01*
X132620910Y-94061441D01*
X132833110Y-94206431D01*
X133085000Y-94257440D01*
X134885000Y-94257440D01*
X135120317Y-94213162D01*
X135336441Y-94074090D01*
X135481431Y-93861890D01*
X135532440Y-93610000D01*
X135532440Y-92779834D01*
X146221695Y-92779834D01*
X146224637Y-92787038D01*
X146224630Y-92794823D01*
X146497950Y-93456307D01*
X146768373Y-94118501D01*
X146776731Y-94131009D01*
X146776820Y-94131225D01*
X146776986Y-94131392D01*
X146788937Y-94149277D01*
X146810059Y-94164522D01*
X147774849Y-95130997D01*
X147785723Y-95146063D01*
X147792897Y-95149077D01*
X147798397Y-95154586D01*
X148459296Y-95429015D01*
X149118863Y-95706084D01*
X149126645Y-95706123D01*
X149133834Y-95709108D01*
X149849474Y-95709733D01*
X150564834Y-95713305D01*
X150572038Y-95710363D01*
X150579823Y-95710370D01*
X151241307Y-95437050D01*
X151903501Y-95166627D01*
X151916009Y-95158269D01*
X151916225Y-95158180D01*
X151916392Y-95158014D01*
X151934277Y-95146063D01*
X151949522Y-95124941D01*
X152915997Y-94160151D01*
X152931063Y-94149277D01*
X152934077Y-94142103D01*
X152939586Y-94136603D01*
X153214015Y-93475704D01*
X153491084Y-92816137D01*
X153491123Y-92808355D01*
X153494108Y-92801166D01*
X153494733Y-92085526D01*
X153496108Y-91810000D01*
X164187560Y-91810000D01*
X164187560Y-93610000D01*
X164231838Y-93845317D01*
X164370910Y-94061441D01*
X164583110Y-94206431D01*
X164835000Y-94257440D01*
X166635000Y-94257440D01*
X166870317Y-94213162D01*
X167086441Y-94074090D01*
X167231431Y-93861890D01*
X167235567Y-93841466D01*
X167404357Y-94010551D01*
X167968330Y-94244733D01*
X168578991Y-94245265D01*
X169143371Y-94012068D01*
X169575551Y-93580643D01*
X169809733Y-93016670D01*
X169810265Y-92406009D01*
X169577068Y-91841629D01*
X169145643Y-91409449D01*
X168581670Y-91175267D01*
X167971009Y-91174735D01*
X167406629Y-91407932D01*
X167238387Y-91575880D01*
X167238162Y-91574683D01*
X167099090Y-91358559D01*
X166886890Y-91213569D01*
X166635000Y-91162560D01*
X164835000Y-91162560D01*
X164599683Y-91206838D01*
X164383559Y-91345910D01*
X164238569Y-91558110D01*
X164187560Y-91810000D01*
X153496108Y-91810000D01*
X153498305Y-91370166D01*
X153495363Y-91362962D01*
X153495370Y-91355177D01*
X153222050Y-90693693D01*
X152951627Y-90031499D01*
X152943269Y-90018991D01*
X152943180Y-90018775D01*
X152943014Y-90018608D01*
X152931063Y-90000723D01*
X152909941Y-89985478D01*
X151945151Y-89019003D01*
X151934277Y-89003937D01*
X151927103Y-89000923D01*
X151921603Y-88995414D01*
X151260704Y-88720985D01*
X150601137Y-88443916D01*
X150593355Y-88443877D01*
X150586166Y-88440892D01*
X149870526Y-88440267D01*
X149155166Y-88436695D01*
X149147962Y-88439637D01*
X149140177Y-88439630D01*
X148478693Y-88712950D01*
X147816499Y-88983373D01*
X147803991Y-88991731D01*
X147803775Y-88991820D01*
X147803608Y-88991986D01*
X147785723Y-89003937D01*
X147770478Y-89025059D01*
X146804003Y-89989849D01*
X146788937Y-90000723D01*
X146785923Y-90007897D01*
X146780414Y-90013397D01*
X146505985Y-90674296D01*
X146228916Y-91333863D01*
X146228877Y-91341645D01*
X146225892Y-91348834D01*
X146225267Y-92064474D01*
X146221695Y-92779834D01*
X135532440Y-92779834D01*
X135532440Y-91810000D01*
X135488162Y-91574683D01*
X135349090Y-91358559D01*
X135136890Y-91213569D01*
X134885000Y-91162560D01*
X133085000Y-91162560D01*
X132849683Y-91206838D01*
X132633559Y-91345910D01*
X132488569Y-91558110D01*
X132484433Y-91578534D01*
X132315643Y-91409449D01*
X131751670Y-91175267D01*
X131141009Y-91174735D01*
X130576629Y-91407932D01*
X130144449Y-91839357D01*
X129910267Y-92403330D01*
X129909735Y-93013991D01*
X127404096Y-93013991D01*
X137594679Y-75690000D01*
X162125321Y-75690000D01*
X174378262Y-96520000D01*
X174378262Y-96520000D01*
G37*
X174378262Y-96520000D02*
X162125321Y-117350000D01*
X137594679Y-117350000D01*
X130819865Y-105832815D01*
X138029630Y-105832815D01*
X138353980Y-106617800D01*
X138954041Y-107218909D01*
X139738459Y-107544628D01*
X140587815Y-107545370D01*
X141372800Y-107221020D01*
X141973909Y-106620959D01*
X142299628Y-105836541D01*
X142300370Y-104987185D01*
X141976020Y-104202200D01*
X141684330Y-103910000D01*
X158507560Y-103910000D01*
X158507560Y-106910000D01*
X158551838Y-107145317D01*
X158690910Y-107361441D01*
X158903110Y-107506431D01*
X159155000Y-107557440D01*
X162155000Y-107557440D01*
X162390317Y-107513162D01*
X162606441Y-107374090D01*
X162751431Y-107161890D01*
X162802440Y-106910000D01*
X162802440Y-103910000D01*
X162758162Y-103674683D01*
X162619090Y-103458559D01*
X162406890Y-103313569D01*
X162155000Y-103262560D01*
X159155000Y-103262560D01*
X158919683Y-103306838D01*
X158703559Y-103445910D01*
X158558569Y-103658110D01*
X158507560Y-103910000D01*
X141684330Y-103910000D01*
X141375959Y-103601091D01*
X140591541Y-103275372D01*
X139742185Y-103274630D01*
X138957200Y-103598980D01*
X138356091Y-104199041D01*
X138030372Y-104983459D01*
X138029630Y-105832815D01*
X130819865Y-105832815D01*
X125341738Y-96520000D01*
X127404096Y-93013991D01*
X129909735Y-93013991D01*
X130142932Y-93578371D01*
X130574357Y-94010551D01*
X131138330Y-94244733D01*
X131748991Y-94245265D01*
X132313371Y-94012068D01*
X132481613Y-93844120D01*
X132481838Y-93845317D01*
X132620910Y-94061441D01*
X132833110Y-94206431D01*
X133085000Y-94257440D01*
X134885000Y-94257440D01*
X135120317Y-94213162D01*
X135336441Y-94074090D01*
X135481431Y-93861890D01*
X135532440Y-93610000D01*
X135532440Y-92779834D01*
X146221695Y-92779834D01*
X146224637Y-92787038D01*
X146224630Y-92794823D01*
X146497950Y-93456307D01*
X146768373Y-94118501D01*
X146776731Y-94131009D01*
X146776820Y-94131225D01*
X146776986Y-94131392D01*
X146788937Y-94149277D01*
X146810059Y-94164522D01*
X147774849Y-95130997D01*
X147785723Y-95146063D01*
X147792897Y-95149077D01*
X147798397Y-95154586D01*
X148459296Y-95429015D01*
X149118863Y-95706084D01*
X149126645Y-95706123D01*
X149133834Y-95709108D01*
X149849474Y-95709733D01*
X150564834Y-95713305D01*
X150572038Y-95710363D01*
X150579823Y-95710370D01*
X151241307Y-95437050D01*
X151903501Y-95166627D01*
X151916009Y-95158269D01*
X151916225Y-95158180D01*
X151916392Y-95158014D01*
X151934277Y-95146063D01*
X151949522Y-95124941D01*
X152915997Y-94160151D01*
X152931063Y-94149277D01*
X152934077Y-94142103D01*
X152939586Y-94136603D01*
X153214015Y-93475704D01*
X153491084Y-92816137D01*
X153491123Y-92808355D01*
X153494108Y-92801166D01*
X153494733Y-92085526D01*
X153496108Y-91810000D01*
X164187560Y-91810000D01*
X164187560Y-93610000D01*
X164231838Y-93845317D01*
X164370910Y-94061441D01*
X164583110Y-94206431D01*
X164835000Y-94257440D01*
X166635000Y-94257440D01*
X166870317Y-94213162D01*
X167086441Y-94074090D01*
X167231431Y-93861890D01*
X167235567Y-93841466D01*
X167404357Y-94010551D01*
X167968330Y-94244733D01*
X168578991Y-94245265D01*
X169143371Y-94012068D01*
X169575551Y-93580643D01*
X169809733Y-93016670D01*
X169810265Y-92406009D01*
X169577068Y-91841629D01*
X169145643Y-91409449D01*
X168581670Y-91175267D01*
X167971009Y-91174735D01*
X167406629Y-91407932D01*
X167238387Y-91575880D01*
X167238162Y-91574683D01*
X167099090Y-91358559D01*
X166886890Y-91213569D01*
X166635000Y-91162560D01*
X164835000Y-91162560D01*
X164599683Y-91206838D01*
X164383559Y-91345910D01*
X164238569Y-91558110D01*
X164187560Y-91810000D01*
X153496108Y-91810000D01*
X153498305Y-91370166D01*
X153495363Y-91362962D01*
X153495370Y-91355177D01*
X153222050Y-90693693D01*
X152951627Y-90031499D01*
X152943269Y-90018991D01*
X152943180Y-90018775D01*
X152943014Y-90018608D01*
X152931063Y-90000723D01*
X152909941Y-89985478D01*
X151945151Y-89019003D01*
X151934277Y-89003937D01*
X151927103Y-89000923D01*
X151921603Y-88995414D01*
X151260704Y-88720985D01*
X150601137Y-88443916D01*
X150593355Y-88443877D01*
X150586166Y-88440892D01*
X149870526Y-88440267D01*
X149155166Y-88436695D01*
X149147962Y-88439637D01*
X149140177Y-88439630D01*
X148478693Y-88712950D01*
X147816499Y-88983373D01*
X147803991Y-88991731D01*
X147803775Y-88991820D01*
X147803608Y-88991986D01*
X147785723Y-89003937D01*
X147770478Y-89025059D01*
X146804003Y-89989849D01*
X146788937Y-90000723D01*
X146785923Y-90007897D01*
X146780414Y-90013397D01*
X146505985Y-90674296D01*
X146228916Y-91333863D01*
X146228877Y-91341645D01*
X146225892Y-91348834D01*
X146225267Y-92064474D01*
X146221695Y-92779834D01*
X135532440Y-92779834D01*
X135532440Y-91810000D01*
X135488162Y-91574683D01*
X135349090Y-91358559D01*
X135136890Y-91213569D01*
X134885000Y-91162560D01*
X133085000Y-91162560D01*
X132849683Y-91206838D01*
X132633559Y-91345910D01*
X132488569Y-91558110D01*
X132484433Y-91578534D01*
X132315643Y-91409449D01*
X131751670Y-91175267D01*
X131141009Y-91174735D01*
X130576629Y-91407932D01*
X130144449Y-91839357D01*
X129910267Y-92403330D01*
X129909735Y-93013991D01*
X127404096Y-93013991D01*
X137594679Y-75690000D01*
X162125321Y-75690000D01*
X174378262Y-96520000D01*
M02*
