G04 #@! TF.FileFunction,Legend,Bot*
%FSLAX46Y46*%
G04 Gerber Fmt 4.6, Leading zero omitted, Abs format (unit mm)*
G04 Created by KiCad (PCBNEW 4.0.7+dfsg1-1) date Sat Mar 10 17:30:55 2018*
%MOMM*%
%LPD*%
G01*
G04 APERTURE LIST*
%ADD10C,0.100000*%
%ADD11C,0.300000*%
%ADD12C,0.120000*%
%ADD13C,0.150000*%
G04 APERTURE END LIST*
D10*
D11*
X159117142Y-78452857D02*
X159117142Y-77252857D01*
X158831427Y-77252857D01*
X158659999Y-77310000D01*
X158545713Y-77424286D01*
X158488570Y-77538571D01*
X158431427Y-77767143D01*
X158431427Y-77938571D01*
X158488570Y-78167143D01*
X158545713Y-78281429D01*
X158659999Y-78395714D01*
X158831427Y-78452857D01*
X159117142Y-78452857D01*
X157459999Y-78395714D02*
X157574285Y-78452857D01*
X157802856Y-78452857D01*
X157917142Y-78395714D01*
X157974285Y-78281429D01*
X157974285Y-77824286D01*
X157917142Y-77710000D01*
X157802856Y-77652857D01*
X157574285Y-77652857D01*
X157459999Y-77710000D01*
X157402856Y-77824286D01*
X157402856Y-77938571D01*
X157974285Y-78052857D01*
X156945714Y-78395714D02*
X156831428Y-78452857D01*
X156602856Y-78452857D01*
X156488571Y-78395714D01*
X156431428Y-78281429D01*
X156431428Y-78224286D01*
X156488571Y-78110000D01*
X156602856Y-78052857D01*
X156774285Y-78052857D01*
X156888571Y-77995714D01*
X156945714Y-77881429D01*
X156945714Y-77824286D01*
X156888571Y-77710000D01*
X156774285Y-77652857D01*
X156602856Y-77652857D01*
X156488571Y-77710000D01*
X155917142Y-78452857D02*
X155917142Y-77652857D01*
X155917142Y-77252857D02*
X155974285Y-77310000D01*
X155917142Y-77367143D01*
X155859999Y-77310000D01*
X155917142Y-77252857D01*
X155917142Y-77367143D01*
X154831427Y-77652857D02*
X154831427Y-78624286D01*
X154888570Y-78738571D01*
X154945713Y-78795714D01*
X155059998Y-78852857D01*
X155231427Y-78852857D01*
X155345713Y-78795714D01*
X154831427Y-78395714D02*
X154945713Y-78452857D01*
X155174284Y-78452857D01*
X155288570Y-78395714D01*
X155345713Y-78338571D01*
X155402856Y-78224286D01*
X155402856Y-77881429D01*
X155345713Y-77767143D01*
X155288570Y-77710000D01*
X155174284Y-77652857D01*
X154945713Y-77652857D01*
X154831427Y-77710000D01*
X154259999Y-77652857D02*
X154259999Y-78452857D01*
X154259999Y-77767143D02*
X154202856Y-77710000D01*
X154088570Y-77652857D01*
X153917142Y-77652857D01*
X153802856Y-77710000D01*
X153745713Y-77824286D01*
X153745713Y-78452857D01*
X152717142Y-78395714D02*
X152831428Y-78452857D01*
X153059999Y-78452857D01*
X153174285Y-78395714D01*
X153231428Y-78281429D01*
X153231428Y-77824286D01*
X153174285Y-77710000D01*
X153059999Y-77652857D01*
X152831428Y-77652857D01*
X152717142Y-77710000D01*
X152659999Y-77824286D01*
X152659999Y-77938571D01*
X153231428Y-78052857D01*
X151631428Y-78452857D02*
X151631428Y-77252857D01*
X151631428Y-78395714D02*
X151745714Y-78452857D01*
X151974285Y-78452857D01*
X152088571Y-78395714D01*
X152145714Y-78338571D01*
X152202857Y-78224286D01*
X152202857Y-77881429D01*
X152145714Y-77767143D01*
X152088571Y-77710000D01*
X151974285Y-77652857D01*
X151745714Y-77652857D01*
X151631428Y-77710000D01*
X150145714Y-78452857D02*
X150145714Y-77252857D01*
X150145714Y-77710000D02*
X150031428Y-77652857D01*
X149802857Y-77652857D01*
X149688571Y-77710000D01*
X149631428Y-77767143D01*
X149574285Y-77881429D01*
X149574285Y-78224286D01*
X149631428Y-78338571D01*
X149688571Y-78395714D01*
X149802857Y-78452857D01*
X150031428Y-78452857D01*
X150145714Y-78395714D01*
X149174285Y-77652857D02*
X148888571Y-78452857D01*
X148602857Y-77652857D02*
X148888571Y-78452857D01*
X149002857Y-78738571D01*
X149060000Y-78795714D01*
X149174285Y-78852857D01*
X146317142Y-77652857D02*
X147231428Y-77995714D01*
X146317142Y-78338571D01*
X145231428Y-78395714D02*
X145345714Y-78452857D01*
X145574285Y-78452857D01*
X145688571Y-78395714D01*
X145745714Y-78338571D01*
X145802857Y-78224286D01*
X145802857Y-77881429D01*
X145745714Y-77767143D01*
X145688571Y-77710000D01*
X145574285Y-77652857D01*
X145345714Y-77652857D01*
X145231428Y-77710000D01*
X144545714Y-78452857D02*
X144660000Y-78395714D01*
X144717143Y-78338571D01*
X144774286Y-78224286D01*
X144774286Y-77881429D01*
X144717143Y-77767143D01*
X144660000Y-77710000D01*
X144545714Y-77652857D01*
X144374286Y-77652857D01*
X144260000Y-77710000D01*
X144202857Y-77767143D01*
X144145714Y-77881429D01*
X144145714Y-78224286D01*
X144202857Y-78338571D01*
X144260000Y-78395714D01*
X144374286Y-78452857D01*
X144545714Y-78452857D01*
X143631429Y-77652857D02*
X143631429Y-78452857D01*
X143631429Y-77767143D02*
X143574286Y-77710000D01*
X143460000Y-77652857D01*
X143288572Y-77652857D01*
X143174286Y-77710000D01*
X143117143Y-77824286D01*
X143117143Y-78452857D01*
X142088572Y-78395714D02*
X142202858Y-78452857D01*
X142431429Y-78452857D01*
X142545715Y-78395714D01*
X142602858Y-78281429D01*
X142602858Y-77824286D01*
X142545715Y-77710000D01*
X142431429Y-77652857D01*
X142202858Y-77652857D01*
X142088572Y-77710000D01*
X142031429Y-77824286D01*
X142031429Y-77938571D01*
X142602858Y-78052857D01*
X141517144Y-77652857D02*
X140602858Y-77995714D01*
X141517144Y-78338571D01*
X160688570Y-80552857D02*
X160688570Y-79924286D01*
X160745713Y-79810000D01*
X160859999Y-79752857D01*
X161088570Y-79752857D01*
X161202856Y-79810000D01*
X160688570Y-80495714D02*
X160802856Y-80552857D01*
X161088570Y-80552857D01*
X161202856Y-80495714D01*
X161259999Y-80381429D01*
X161259999Y-80267143D01*
X161202856Y-80152857D01*
X161088570Y-80095714D01*
X160802856Y-80095714D01*
X160688570Y-80038571D01*
X160288570Y-79752857D02*
X159831427Y-79752857D01*
X160117142Y-79352857D02*
X160117142Y-80381429D01*
X160059999Y-80495714D01*
X159945713Y-80552857D01*
X159831427Y-80552857D01*
X158517142Y-80552857D02*
X158517142Y-79352857D01*
X158517142Y-79924286D02*
X157831427Y-79924286D01*
X157831427Y-80552857D02*
X157831427Y-79352857D01*
X156745713Y-80552857D02*
X156745713Y-79924286D01*
X156802856Y-79810000D01*
X156917142Y-79752857D01*
X157145713Y-79752857D01*
X157259999Y-79810000D01*
X156745713Y-80495714D02*
X156859999Y-80552857D01*
X157145713Y-80552857D01*
X157259999Y-80495714D01*
X157317142Y-80381429D01*
X157317142Y-80267143D01*
X157259999Y-80152857D01*
X157145713Y-80095714D01*
X156859999Y-80095714D01*
X156745713Y-80038571D01*
X155659999Y-80495714D02*
X155774285Y-80552857D01*
X156002856Y-80552857D01*
X156117142Y-80495714D01*
X156174285Y-80438571D01*
X156231428Y-80324286D01*
X156231428Y-79981429D01*
X156174285Y-79867143D01*
X156117142Y-79810000D01*
X156002856Y-79752857D01*
X155774285Y-79752857D01*
X155659999Y-79810000D01*
X155145714Y-80552857D02*
X155145714Y-79352857D01*
X155031428Y-80095714D02*
X154688571Y-80552857D01*
X154688571Y-79752857D02*
X155145714Y-80210000D01*
X154231428Y-80495714D02*
X154117142Y-80552857D01*
X153888570Y-80552857D01*
X153774285Y-80495714D01*
X153717142Y-80381429D01*
X153717142Y-80324286D01*
X153774285Y-80210000D01*
X153888570Y-80152857D01*
X154059999Y-80152857D01*
X154174285Y-80095714D01*
X154231428Y-79981429D01*
X154231428Y-79924286D01*
X154174285Y-79810000D01*
X154059999Y-79752857D01*
X153888570Y-79752857D01*
X153774285Y-79810000D01*
X153202856Y-79752857D02*
X153202856Y-80952857D01*
X153202856Y-79810000D02*
X153088570Y-79752857D01*
X152859999Y-79752857D01*
X152745713Y-79810000D01*
X152688570Y-79867143D01*
X152631427Y-79981429D01*
X152631427Y-80324286D01*
X152688570Y-80438571D01*
X152745713Y-80495714D01*
X152859999Y-80552857D01*
X153088570Y-80552857D01*
X153202856Y-80495714D01*
X151602856Y-80552857D02*
X151602856Y-79924286D01*
X151659999Y-79810000D01*
X151774285Y-79752857D01*
X152002856Y-79752857D01*
X152117142Y-79810000D01*
X151602856Y-80495714D02*
X151717142Y-80552857D01*
X152002856Y-80552857D01*
X152117142Y-80495714D01*
X152174285Y-80381429D01*
X152174285Y-80267143D01*
X152117142Y-80152857D01*
X152002856Y-80095714D01*
X151717142Y-80095714D01*
X151602856Y-80038571D01*
X150517142Y-80495714D02*
X150631428Y-80552857D01*
X150859999Y-80552857D01*
X150974285Y-80495714D01*
X151031428Y-80438571D01*
X151088571Y-80324286D01*
X151088571Y-79981429D01*
X151031428Y-79867143D01*
X150974285Y-79810000D01*
X150859999Y-79752857D01*
X150631428Y-79752857D01*
X150517142Y-79810000D01*
X149545714Y-80495714D02*
X149660000Y-80552857D01*
X149888571Y-80552857D01*
X150002857Y-80495714D01*
X150060000Y-80381429D01*
X150060000Y-79924286D01*
X150002857Y-79810000D01*
X149888571Y-79752857D01*
X149660000Y-79752857D01*
X149545714Y-79810000D01*
X149488571Y-79924286D01*
X149488571Y-80038571D01*
X150060000Y-80152857D01*
X148060000Y-80552857D02*
X148060000Y-79352857D01*
X147660000Y-80210000D01*
X147260000Y-79352857D01*
X147260000Y-80552857D01*
X146174285Y-80552857D02*
X146174285Y-79924286D01*
X146231428Y-79810000D01*
X146345714Y-79752857D01*
X146574285Y-79752857D01*
X146688571Y-79810000D01*
X146174285Y-80495714D02*
X146288571Y-80552857D01*
X146574285Y-80552857D01*
X146688571Y-80495714D01*
X146745714Y-80381429D01*
X146745714Y-80267143D01*
X146688571Y-80152857D01*
X146574285Y-80095714D01*
X146288571Y-80095714D01*
X146174285Y-80038571D01*
X145602857Y-79752857D02*
X145602857Y-80552857D01*
X145602857Y-79867143D02*
X145545714Y-79810000D01*
X145431428Y-79752857D01*
X145260000Y-79752857D01*
X145145714Y-79810000D01*
X145088571Y-79924286D01*
X145088571Y-80552857D01*
X144002857Y-80495714D02*
X144117143Y-80552857D01*
X144345714Y-80552857D01*
X144460000Y-80495714D01*
X144517143Y-80438571D01*
X144574286Y-80324286D01*
X144574286Y-79981429D01*
X144517143Y-79867143D01*
X144460000Y-79810000D01*
X144345714Y-79752857D01*
X144117143Y-79752857D01*
X144002857Y-79810000D01*
X143488572Y-80552857D02*
X143488572Y-79352857D01*
X142974286Y-80552857D02*
X142974286Y-79924286D01*
X143031429Y-79810000D01*
X143145715Y-79752857D01*
X143317143Y-79752857D01*
X143431429Y-79810000D01*
X143488572Y-79867143D01*
X141945715Y-80495714D02*
X142060001Y-80552857D01*
X142288572Y-80552857D01*
X142402858Y-80495714D01*
X142460001Y-80381429D01*
X142460001Y-79924286D01*
X142402858Y-79810000D01*
X142288572Y-79752857D01*
X142060001Y-79752857D01*
X141945715Y-79810000D01*
X141888572Y-79924286D01*
X141888572Y-80038571D01*
X142460001Y-80152857D01*
X141431430Y-80495714D02*
X141317144Y-80552857D01*
X141088572Y-80552857D01*
X140974287Y-80495714D01*
X140917144Y-80381429D01*
X140917144Y-80324286D01*
X140974287Y-80210000D01*
X141088572Y-80152857D01*
X141260001Y-80152857D01*
X141374287Y-80095714D01*
X141431430Y-79981429D01*
X141431430Y-79924286D01*
X141374287Y-79810000D01*
X141260001Y-79752857D01*
X141088572Y-79752857D01*
X140974287Y-79810000D01*
X140574286Y-79752857D02*
X140117143Y-79752857D01*
X140402858Y-79352857D02*
X140402858Y-80381429D01*
X140345715Y-80495714D01*
X140231429Y-80552857D01*
X140117143Y-80552857D01*
X139260001Y-80495714D02*
X139374287Y-80552857D01*
X139602858Y-80552857D01*
X139717144Y-80495714D01*
X139774287Y-80381429D01*
X139774287Y-79924286D01*
X139717144Y-79810000D01*
X139602858Y-79752857D01*
X139374287Y-79752857D01*
X139260001Y-79810000D01*
X139202858Y-79924286D01*
X139202858Y-80038571D01*
X139774287Y-80152857D01*
X138688573Y-80552857D02*
X138688573Y-79752857D01*
X138688573Y-79981429D02*
X138631430Y-79867143D01*
X138574287Y-79810000D01*
X138460001Y-79752857D01*
X138345716Y-79752857D01*
X151917143Y-81567143D02*
X151860000Y-81510000D01*
X151745714Y-81452857D01*
X151460000Y-81452857D01*
X151345714Y-81510000D01*
X151288571Y-81567143D01*
X151231428Y-81681429D01*
X151231428Y-81795714D01*
X151288571Y-81967143D01*
X151974285Y-82652857D01*
X151231428Y-82652857D01*
X150488571Y-81452857D02*
X150374286Y-81452857D01*
X150260000Y-81510000D01*
X150202857Y-81567143D01*
X150145714Y-81681429D01*
X150088571Y-81910000D01*
X150088571Y-82195714D01*
X150145714Y-82424286D01*
X150202857Y-82538571D01*
X150260000Y-82595714D01*
X150374286Y-82652857D01*
X150488571Y-82652857D01*
X150602857Y-82595714D01*
X150660000Y-82538571D01*
X150717143Y-82424286D01*
X150774286Y-82195714D01*
X150774286Y-81910000D01*
X150717143Y-81681429D01*
X150660000Y-81567143D01*
X150602857Y-81510000D01*
X150488571Y-81452857D01*
X148945714Y-82652857D02*
X149631429Y-82652857D01*
X149288571Y-82652857D02*
X149288571Y-81452857D01*
X149402857Y-81624286D01*
X149517143Y-81738571D01*
X149631429Y-81795714D01*
X148260000Y-81967143D02*
X148374286Y-81910000D01*
X148431429Y-81852857D01*
X148488572Y-81738571D01*
X148488572Y-81681429D01*
X148431429Y-81567143D01*
X148374286Y-81510000D01*
X148260000Y-81452857D01*
X148031429Y-81452857D01*
X147917143Y-81510000D01*
X147860000Y-81567143D01*
X147802857Y-81681429D01*
X147802857Y-81738571D01*
X147860000Y-81852857D01*
X147917143Y-81910000D01*
X148031429Y-81967143D01*
X148260000Y-81967143D01*
X148374286Y-82024286D01*
X148431429Y-82081429D01*
X148488572Y-82195714D01*
X148488572Y-82424286D01*
X148431429Y-82538571D01*
X148374286Y-82595714D01*
X148260000Y-82652857D01*
X148031429Y-82652857D01*
X147917143Y-82595714D01*
X147860000Y-82538571D01*
X147802857Y-82424286D01*
X147802857Y-82195714D01*
X147860000Y-82081429D01*
X147917143Y-82024286D01*
X148031429Y-81967143D01*
D12*
X133959329Y-105364719D02*
G75*
G03X156405000Y-108910000I11495671J-45281D01*
G01*
X156403246Y-108936384D02*
G75*
G02X157155000Y-108410000I751754J-273616D01*
G01*
X133959329Y-105455281D02*
G75*
G02X156405000Y-101910000I11495671J45281D01*
G01*
X156403246Y-101883616D02*
G75*
G03X157155000Y-102410000I751754J273616D01*
G01*
X162855000Y-102410000D02*
X157155000Y-102410000D01*
X162855000Y-108410000D02*
X162855000Y-102410000D01*
X162855000Y-108410000D02*
X157155000Y-108410000D01*
X169995000Y-92709538D02*
G75*
G02X164445000Y-94254830I-2990000J-462D01*
G01*
X169995000Y-92710462D02*
G75*
G03X164445000Y-91165170I-2990000J462D01*
G01*
X169505000Y-92710000D02*
G75*
G03X169505000Y-92710000I-2500000J0D01*
G01*
X164445000Y-94255000D02*
X164445000Y-91165000D01*
X129725000Y-92710462D02*
G75*
G02X135275000Y-91165170I2990000J462D01*
G01*
X129725000Y-92709538D02*
G75*
G03X135275000Y-94254830I2990000J-462D01*
G01*
X135215000Y-92710000D02*
G75*
G03X135215000Y-92710000I-2500000J0D01*
G01*
X135275000Y-91165000D02*
X135275000Y-94255000D01*
D13*
X161440714Y-101038571D02*
X161297857Y-101086190D01*
X161250238Y-101133810D01*
X161202619Y-101229048D01*
X161202619Y-101371905D01*
X161250238Y-101467143D01*
X161297857Y-101514762D01*
X161393095Y-101562381D01*
X161774048Y-101562381D01*
X161774048Y-100562381D01*
X161440714Y-100562381D01*
X161345476Y-100610000D01*
X161297857Y-100657619D01*
X161250238Y-100752857D01*
X161250238Y-100848095D01*
X161297857Y-100943333D01*
X161345476Y-100990952D01*
X161440714Y-101038571D01*
X161774048Y-101038571D01*
X160916905Y-100562381D02*
X160345476Y-100562381D01*
X160631191Y-101562381D02*
X160631191Y-100562381D01*
X159488333Y-101562381D02*
X160059762Y-101562381D01*
X159774048Y-101562381D02*
X159774048Y-100562381D01*
X159869286Y-100705238D01*
X159964524Y-100800476D01*
X160059762Y-100848095D01*
X158476428Y-105517143D02*
X157333571Y-105517143D01*
X157905000Y-106088571D02*
X157905000Y-104945714D01*
X167743095Y-97122381D02*
X167743095Y-96122381D01*
X167505000Y-96122381D01*
X167362142Y-96170000D01*
X167266904Y-96265238D01*
X167219285Y-96360476D01*
X167171666Y-96550952D01*
X167171666Y-96693810D01*
X167219285Y-96884286D01*
X167266904Y-96979524D01*
X167362142Y-97074762D01*
X167505000Y-97122381D01*
X167743095Y-97122381D01*
X166219285Y-97122381D02*
X166790714Y-97122381D01*
X166505000Y-97122381D02*
X166505000Y-96122381D01*
X166600238Y-96265238D01*
X166695476Y-96360476D01*
X166790714Y-96408095D01*
X133453095Y-89202381D02*
X133453095Y-88202381D01*
X133215000Y-88202381D01*
X133072142Y-88250000D01*
X132976904Y-88345238D01*
X132929285Y-88440476D01*
X132881666Y-88630952D01*
X132881666Y-88773810D01*
X132929285Y-88964286D01*
X132976904Y-89059524D01*
X133072142Y-89154762D01*
X133215000Y-89202381D01*
X133453095Y-89202381D01*
X132500714Y-88297619D02*
X132453095Y-88250000D01*
X132357857Y-88202381D01*
X132119761Y-88202381D01*
X132024523Y-88250000D01*
X131976904Y-88297619D01*
X131929285Y-88392857D01*
X131929285Y-88488095D01*
X131976904Y-88630952D01*
X132548333Y-89202381D01*
X131929285Y-89202381D01*
M02*
