G04 #@! TF.FileFunction,Other,Fab,Bot*
%FSLAX46Y46*%
G04 Gerber Fmt 4.6, Leading zero omitted, Abs format (unit mm)*
G04 Created by KiCad (PCBNEW 4.0.7+dfsg1-1) date Sat Apr  7 12:07:35 2018*
%MOMM*%
%LPD*%
G01*
G04 APERTURE LIST*
%ADD10C,0.100000*%
%ADD11C,0.300000*%
%ADD12C,0.150000*%
%ADD13C,0.200000*%
G04 APERTURE END LIST*
D10*
D11*
X142102142Y-97823571D02*
X142102142Y-96323571D01*
X142673570Y-96323571D01*
X142816428Y-96395000D01*
X142887856Y-96466429D01*
X142959285Y-96609286D01*
X142959285Y-96823571D01*
X142887856Y-96966429D01*
X142816428Y-97037857D01*
X142673570Y-97109286D01*
X142102142Y-97109286D01*
X144459285Y-97823571D02*
X143959285Y-97109286D01*
X143602142Y-97823571D02*
X143602142Y-96323571D01*
X144173570Y-96323571D01*
X144316428Y-96395000D01*
X144387856Y-96466429D01*
X144459285Y-96609286D01*
X144459285Y-96823571D01*
X144387856Y-96966429D01*
X144316428Y-97037857D01*
X144173570Y-97109286D01*
X143602142Y-97109286D01*
X145387856Y-96323571D02*
X145673570Y-96323571D01*
X145816428Y-96395000D01*
X145959285Y-96537857D01*
X146030713Y-96823571D01*
X146030713Y-97323571D01*
X145959285Y-97609286D01*
X145816428Y-97752143D01*
X145673570Y-97823571D01*
X145387856Y-97823571D01*
X145244999Y-97752143D01*
X145102142Y-97609286D01*
X145030713Y-97323571D01*
X145030713Y-96823571D01*
X145102142Y-96537857D01*
X145244999Y-96395000D01*
X145387856Y-96323571D01*
X146673571Y-97823571D02*
X146673571Y-96323571D01*
X147030714Y-96323571D01*
X147244999Y-96395000D01*
X147387857Y-96537857D01*
X147459285Y-96680714D01*
X147530714Y-96966429D01*
X147530714Y-97180714D01*
X147459285Y-97466429D01*
X147387857Y-97609286D01*
X147244999Y-97752143D01*
X147030714Y-97823571D01*
X146673571Y-97823571D01*
X148173571Y-96323571D02*
X148173571Y-97537857D01*
X148244999Y-97680714D01*
X148316428Y-97752143D01*
X148459285Y-97823571D01*
X148744999Y-97823571D01*
X148887857Y-97752143D01*
X148959285Y-97680714D01*
X149030714Y-97537857D01*
X149030714Y-96323571D01*
X150602143Y-97680714D02*
X150530714Y-97752143D01*
X150316428Y-97823571D01*
X150173571Y-97823571D01*
X149959286Y-97752143D01*
X149816428Y-97609286D01*
X149745000Y-97466429D01*
X149673571Y-97180714D01*
X149673571Y-96966429D01*
X149745000Y-96680714D01*
X149816428Y-96537857D01*
X149959286Y-96395000D01*
X150173571Y-96323571D01*
X150316428Y-96323571D01*
X150530714Y-96395000D01*
X150602143Y-96466429D01*
X151030714Y-96323571D02*
X151887857Y-96323571D01*
X151459286Y-97823571D02*
X151459286Y-96323571D01*
X152387857Y-97823571D02*
X152387857Y-96323571D01*
X153387857Y-96323571D02*
X153673571Y-96323571D01*
X153816429Y-96395000D01*
X153959286Y-96537857D01*
X154030714Y-96823571D01*
X154030714Y-97323571D01*
X153959286Y-97609286D01*
X153816429Y-97752143D01*
X153673571Y-97823571D01*
X153387857Y-97823571D01*
X153245000Y-97752143D01*
X153102143Y-97609286D01*
X153030714Y-97323571D01*
X153030714Y-96823571D01*
X153102143Y-96537857D01*
X153245000Y-96395000D01*
X153387857Y-96323571D01*
X154673572Y-97823571D02*
X154673572Y-96323571D01*
X155530715Y-97823571D01*
X155530715Y-96323571D01*
X157387858Y-97823571D02*
X157387858Y-96323571D01*
X158102144Y-97823571D02*
X158102144Y-96323571D01*
X158459287Y-96323571D01*
X158673572Y-96395000D01*
X158816430Y-96537857D01*
X158887858Y-96680714D01*
X158959287Y-96966429D01*
X158959287Y-97180714D01*
X158887858Y-97466429D01*
X158816430Y-97609286D01*
X158673572Y-97752143D01*
X158459287Y-97823571D01*
X158102144Y-97823571D01*
X143780714Y-100373571D02*
X143780714Y-98873571D01*
X144280714Y-99945000D01*
X144780714Y-98873571D01*
X144780714Y-100373571D01*
X145495000Y-98873571D02*
X145495000Y-100087857D01*
X145566428Y-100230714D01*
X145637857Y-100302143D01*
X145780714Y-100373571D01*
X146066428Y-100373571D01*
X146209286Y-100302143D01*
X146280714Y-100230714D01*
X146352143Y-100087857D01*
X146352143Y-98873571D01*
X146995000Y-100302143D02*
X147209286Y-100373571D01*
X147566429Y-100373571D01*
X147709286Y-100302143D01*
X147780715Y-100230714D01*
X147852143Y-100087857D01*
X147852143Y-99945000D01*
X147780715Y-99802143D01*
X147709286Y-99730714D01*
X147566429Y-99659286D01*
X147280715Y-99587857D01*
X147137857Y-99516429D01*
X147066429Y-99445000D01*
X146995000Y-99302143D01*
X146995000Y-99159286D01*
X147066429Y-99016429D01*
X147137857Y-98945000D01*
X147280715Y-98873571D01*
X147637857Y-98873571D01*
X147852143Y-98945000D01*
X148280714Y-98873571D02*
X149137857Y-98873571D01*
X148709286Y-100373571D02*
X148709286Y-98873571D01*
X151280714Y-99587857D02*
X151495000Y-99659286D01*
X151566428Y-99730714D01*
X151637857Y-99873571D01*
X151637857Y-100087857D01*
X151566428Y-100230714D01*
X151495000Y-100302143D01*
X151352142Y-100373571D01*
X150780714Y-100373571D01*
X150780714Y-98873571D01*
X151280714Y-98873571D01*
X151423571Y-98945000D01*
X151495000Y-99016429D01*
X151566428Y-99159286D01*
X151566428Y-99302143D01*
X151495000Y-99445000D01*
X151423571Y-99516429D01*
X151280714Y-99587857D01*
X150780714Y-99587857D01*
X152280714Y-99587857D02*
X152780714Y-99587857D01*
X152995000Y-100373571D02*
X152280714Y-100373571D01*
X152280714Y-98873571D01*
X152995000Y-98873571D01*
X155066428Y-98873571D02*
X155352142Y-98873571D01*
X155495000Y-98945000D01*
X155637857Y-99087857D01*
X155709285Y-99373571D01*
X155709285Y-99873571D01*
X155637857Y-100159286D01*
X155495000Y-100302143D01*
X155352142Y-100373571D01*
X155066428Y-100373571D01*
X154923571Y-100302143D01*
X154780714Y-100159286D01*
X154709285Y-99873571D01*
X154709285Y-99373571D01*
X154780714Y-99087857D01*
X154923571Y-98945000D01*
X155066428Y-98873571D01*
X156352143Y-100373571D02*
X156352143Y-98873571D01*
X157209286Y-100373571D01*
X157209286Y-98873571D01*
X140745000Y-101423571D02*
X141602143Y-101423571D01*
X141173572Y-102923571D02*
X141173572Y-101423571D01*
X142102143Y-102923571D02*
X142102143Y-101423571D01*
X142102143Y-102137857D02*
X142959286Y-102137857D01*
X142959286Y-102923571D02*
X142959286Y-101423571D01*
X143673572Y-102923571D02*
X143673572Y-101423571D01*
X144316429Y-102852143D02*
X144530715Y-102923571D01*
X144887858Y-102923571D01*
X145030715Y-102852143D01*
X145102144Y-102780714D01*
X145173572Y-102637857D01*
X145173572Y-102495000D01*
X145102144Y-102352143D01*
X145030715Y-102280714D01*
X144887858Y-102209286D01*
X144602144Y-102137857D01*
X144459286Y-102066429D01*
X144387858Y-101995000D01*
X144316429Y-101852143D01*
X144316429Y-101709286D01*
X144387858Y-101566429D01*
X144459286Y-101495000D01*
X144602144Y-101423571D01*
X144959286Y-101423571D01*
X145173572Y-101495000D01*
X147387857Y-103495000D02*
X147316429Y-103423571D01*
X147173572Y-103209286D01*
X147102143Y-103066429D01*
X147030714Y-102852143D01*
X146959286Y-102495000D01*
X146959286Y-102209286D01*
X147030714Y-101852143D01*
X147102143Y-101637857D01*
X147173572Y-101495000D01*
X147316429Y-101280714D01*
X147387857Y-101209286D01*
X148459286Y-102137857D02*
X148673572Y-102209286D01*
X148745000Y-102280714D01*
X148816429Y-102423571D01*
X148816429Y-102637857D01*
X148745000Y-102780714D01*
X148673572Y-102852143D01*
X148530714Y-102923571D01*
X147959286Y-102923571D01*
X147959286Y-101423571D01*
X148459286Y-101423571D01*
X148602143Y-101495000D01*
X148673572Y-101566429D01*
X148745000Y-101709286D01*
X148745000Y-101852143D01*
X148673572Y-101995000D01*
X148602143Y-102066429D01*
X148459286Y-102137857D01*
X147959286Y-102137857D01*
X149387857Y-102495000D02*
X150102143Y-102495000D01*
X149245000Y-102923571D02*
X149745000Y-101423571D01*
X150245000Y-102923571D01*
X151602143Y-102780714D02*
X151530714Y-102852143D01*
X151316428Y-102923571D01*
X151173571Y-102923571D01*
X150959286Y-102852143D01*
X150816428Y-102709286D01*
X150745000Y-102566429D01*
X150673571Y-102280714D01*
X150673571Y-102066429D01*
X150745000Y-101780714D01*
X150816428Y-101637857D01*
X150959286Y-101495000D01*
X151173571Y-101423571D01*
X151316428Y-101423571D01*
X151530714Y-101495000D01*
X151602143Y-101566429D01*
X152245000Y-102923571D02*
X152245000Y-101423571D01*
X153102143Y-102923571D02*
X152459286Y-102066429D01*
X153102143Y-101423571D02*
X152245000Y-102280714D01*
X153602143Y-103495000D02*
X153673571Y-103423571D01*
X153816428Y-103209286D01*
X153887857Y-103066429D01*
X153959286Y-102852143D01*
X154030714Y-102495000D01*
X154030714Y-102209286D01*
X153959286Y-101852143D01*
X153887857Y-101637857D01*
X153816428Y-101495000D01*
X153673571Y-101280714D01*
X153602143Y-101209286D01*
X155816428Y-102852143D02*
X156030714Y-102923571D01*
X156387857Y-102923571D01*
X156530714Y-102852143D01*
X156602143Y-102780714D01*
X156673571Y-102637857D01*
X156673571Y-102495000D01*
X156602143Y-102352143D01*
X156530714Y-102280714D01*
X156387857Y-102209286D01*
X156102143Y-102137857D01*
X155959285Y-102066429D01*
X155887857Y-101995000D01*
X155816428Y-101852143D01*
X155816428Y-101709286D01*
X155887857Y-101566429D01*
X155959285Y-101495000D01*
X156102143Y-101423571D01*
X156459285Y-101423571D01*
X156673571Y-101495000D01*
X157316428Y-102923571D02*
X157316428Y-101423571D01*
X158745000Y-102923571D02*
X158030714Y-102923571D01*
X158030714Y-101423571D01*
X159245000Y-102923571D02*
X159245000Y-101423571D01*
X160102143Y-102923571D02*
X159459286Y-102066429D01*
X160102143Y-101423571D02*
X159245000Y-102280714D01*
D10*
X156309277Y-108902182D02*
G75*
G02X157155000Y-108310000I845723J-307818D01*
G01*
X134054701Y-105334649D02*
G75*
G03X156305000Y-108910000I11400299J-75351D01*
G01*
X134054701Y-105485351D02*
G75*
G02X156305000Y-101910000I11400299J75351D01*
G01*
X135455000Y-104110000D02*
G75*
G03X155455000Y-106710000I10000000J-1300000D01*
G01*
X139123450Y-105206369D02*
G75*
G03X151655000Y-106710000I6331550J-203631D01*
G01*
X143159552Y-105234167D02*
G75*
G03X147355000Y-106710000I2295448J-175833D01*
G01*
X137083800Y-113131600D02*
X137998200Y-112293400D01*
X137083800Y-97688400D02*
X138023600Y-98552000D01*
X143159552Y-105585833D02*
G75*
G02X147355000Y-104110000I2295448J175833D01*
G01*
X139123450Y-105613631D02*
G75*
G02X151655000Y-104110000I6331550J203631D01*
G01*
X135455000Y-106710000D02*
G75*
G02X155455000Y-104110000I10000000J1300000D01*
G01*
X157124400Y-102510000D02*
X162355000Y-102510000D01*
X162355000Y-108310000D02*
X157124400Y-108310000D01*
X162755000Y-102910000D02*
X162755000Y-107910000D01*
X160655000Y-106710000D02*
X144455000Y-106710000D01*
X144455000Y-104110000D02*
X160655000Y-104110000D01*
X156309277Y-101917818D02*
G75*
G03X157155000Y-102510000I845723J307818D01*
G01*
X144455000Y-106710000D02*
G75*
G02X144455000Y-104110000I0J1300000D01*
G01*
X160655000Y-104110000D02*
X160655000Y-106710000D01*
X162355000Y-108310000D02*
G75*
G03X162755000Y-107910000I0J400000D01*
G01*
X162355000Y-102510000D02*
G75*
G02X162755000Y-102910000I0J-400000D01*
G01*
X164504984Y-91240334D02*
G75*
G02X164505000Y-94179694I2500016J-1469666D01*
G01*
X169505000Y-92710000D02*
G75*
G03X169505000Y-92710000I-2500000J0D01*
G01*
X164505000Y-94179694D02*
X164505000Y-91240306D01*
X135215016Y-94179666D02*
G75*
G02X135215000Y-91240306I-2500016J1469666D01*
G01*
X135215000Y-92710000D02*
G75*
G03X135215000Y-92710000I-2500000J0D01*
G01*
X135215000Y-91240306D02*
X135215000Y-94179694D01*
D12*
X149559763Y-118338571D02*
X149416906Y-118386190D01*
X149369287Y-118433810D01*
X149321668Y-118529048D01*
X149321668Y-118671905D01*
X149369287Y-118767143D01*
X149416906Y-118814762D01*
X149512144Y-118862381D01*
X149893097Y-118862381D01*
X149893097Y-117862381D01*
X149559763Y-117862381D01*
X149464525Y-117910000D01*
X149416906Y-117957619D01*
X149369287Y-118052857D01*
X149369287Y-118148095D01*
X149416906Y-118243333D01*
X149464525Y-118290952D01*
X149559763Y-118338571D01*
X149893097Y-118338571D01*
X148464525Y-118862381D02*
X148464525Y-118338571D01*
X148512144Y-118243333D01*
X148607382Y-118195714D01*
X148797859Y-118195714D01*
X148893097Y-118243333D01*
X148464525Y-118814762D02*
X148559763Y-118862381D01*
X148797859Y-118862381D01*
X148893097Y-118814762D01*
X148940716Y-118719524D01*
X148940716Y-118624286D01*
X148893097Y-118529048D01*
X148797859Y-118481429D01*
X148559763Y-118481429D01*
X148464525Y-118433810D01*
X148131192Y-118195714D02*
X147750240Y-118195714D01*
X147988335Y-117862381D02*
X147988335Y-118719524D01*
X147940716Y-118814762D01*
X147845478Y-118862381D01*
X147750240Y-118862381D01*
X147559763Y-118195714D02*
X147178811Y-118195714D01*
X147416906Y-117862381D02*
X147416906Y-118719524D01*
X147369287Y-118814762D01*
X147274049Y-118862381D01*
X147178811Y-118862381D01*
X146464524Y-118814762D02*
X146559762Y-118862381D01*
X146750239Y-118862381D01*
X146845477Y-118814762D01*
X146893096Y-118719524D01*
X146893096Y-118338571D01*
X146845477Y-118243333D01*
X146750239Y-118195714D01*
X146559762Y-118195714D01*
X146464524Y-118243333D01*
X146416905Y-118338571D01*
X146416905Y-118433810D01*
X146893096Y-118529048D01*
X145988334Y-118862381D02*
X145988334Y-118195714D01*
X145988334Y-118386190D02*
X145940715Y-118290952D01*
X145893096Y-118243333D01*
X145797858Y-118195714D01*
X145702619Y-118195714D01*
X145464524Y-118195714D02*
X145226429Y-118862381D01*
X144988333Y-118195714D02*
X145226429Y-118862381D01*
X145321667Y-119100476D01*
X145369286Y-119148095D01*
X145464524Y-119195714D01*
X144845476Y-118957619D02*
X144083571Y-118957619D01*
X143274047Y-118767143D02*
X143321666Y-118814762D01*
X143464523Y-118862381D01*
X143559761Y-118862381D01*
X143702619Y-118814762D01*
X143797857Y-118719524D01*
X143845476Y-118624286D01*
X143893095Y-118433810D01*
X143893095Y-118290952D01*
X143845476Y-118100476D01*
X143797857Y-118005238D01*
X143702619Y-117910000D01*
X143559761Y-117862381D01*
X143464523Y-117862381D01*
X143321666Y-117910000D01*
X143274047Y-117957619D01*
X142464523Y-118814762D02*
X142559761Y-118862381D01*
X142750238Y-118862381D01*
X142845476Y-118814762D01*
X142893095Y-118719524D01*
X142893095Y-118338571D01*
X142845476Y-118243333D01*
X142750238Y-118195714D01*
X142559761Y-118195714D01*
X142464523Y-118243333D01*
X142416904Y-118338571D01*
X142416904Y-118433810D01*
X142893095Y-118529048D01*
X141845476Y-118862381D02*
X141940714Y-118814762D01*
X141988333Y-118719524D01*
X141988333Y-117862381D01*
X141321666Y-118862381D02*
X141416904Y-118814762D01*
X141464523Y-118719524D01*
X141464523Y-117862381D01*
X167647857Y-89202381D02*
X168124048Y-89202381D01*
X168124048Y-88202381D01*
X167314524Y-88678571D02*
X166981190Y-88678571D01*
X166838333Y-89202381D02*
X167314524Y-89202381D01*
X167314524Y-88202381D01*
X166838333Y-88202381D01*
X166409762Y-89202381D02*
X166409762Y-88202381D01*
X166171667Y-88202381D01*
X166028809Y-88250000D01*
X165933571Y-88345238D01*
X165885952Y-88440476D01*
X165838333Y-88630952D01*
X165838333Y-88773810D01*
X165885952Y-88964286D01*
X165933571Y-89059524D01*
X166028809Y-89154762D01*
X166171667Y-89202381D01*
X166409762Y-89202381D01*
D13*
X167575476Y-93071905D02*
X167575476Y-92271905D01*
X167385000Y-92271905D01*
X167270714Y-92310000D01*
X167194523Y-92386190D01*
X167156428Y-92462381D01*
X167118333Y-92614762D01*
X167118333Y-92729048D01*
X167156428Y-92881429D01*
X167194523Y-92957619D01*
X167270714Y-93033810D01*
X167385000Y-93071905D01*
X167575476Y-93071905D01*
X166356428Y-93071905D02*
X166813571Y-93071905D01*
X166585000Y-93071905D02*
X166585000Y-92271905D01*
X166661190Y-92386190D01*
X166737381Y-92462381D01*
X166813571Y-92500476D01*
D12*
X133357857Y-97122381D02*
X133834048Y-97122381D01*
X133834048Y-96122381D01*
X133024524Y-96598571D02*
X132691190Y-96598571D01*
X132548333Y-97122381D02*
X133024524Y-97122381D01*
X133024524Y-96122381D01*
X132548333Y-96122381D01*
X132119762Y-97122381D02*
X132119762Y-96122381D01*
X131881667Y-96122381D01*
X131738809Y-96170000D01*
X131643571Y-96265238D01*
X131595952Y-96360476D01*
X131548333Y-96550952D01*
X131548333Y-96693810D01*
X131595952Y-96884286D01*
X131643571Y-96979524D01*
X131738809Y-97074762D01*
X131881667Y-97122381D01*
X132119762Y-97122381D01*
D13*
X133325476Y-93071905D02*
X133325476Y-92271905D01*
X133135000Y-92271905D01*
X133020714Y-92310000D01*
X132944523Y-92386190D01*
X132906428Y-92462381D01*
X132868333Y-92614762D01*
X132868333Y-92729048D01*
X132906428Y-92881429D01*
X132944523Y-92957619D01*
X133020714Y-93033810D01*
X133135000Y-93071905D01*
X133325476Y-93071905D01*
X132563571Y-92348095D02*
X132525476Y-92310000D01*
X132449285Y-92271905D01*
X132258809Y-92271905D01*
X132182619Y-92310000D01*
X132144523Y-92348095D01*
X132106428Y-92424286D01*
X132106428Y-92500476D01*
X132144523Y-92614762D01*
X132601666Y-93071905D01*
X132106428Y-93071905D01*
M02*
