G04 #@! TF.FileFunction,Legend,Bot*
%FSLAX46Y46*%
G04 Gerber Fmt 4.6, Leading zero omitted, Abs format (unit mm)*
G04 Created by KiCad (PCBNEW 4.0.7+dfsg1-1) date Sat Apr  7 12:07:35 2018*
%MOMM*%
%LPD*%
G01*
G04 APERTURE LIST*
%ADD10C,0.100000*%
%ADD11C,0.300000*%
%ADD12C,0.120000*%
%ADD13C,0.150000*%
G04 APERTURE END LIST*
D10*
D11*
X160259999Y-83452857D02*
X160259999Y-82252857D01*
X159974284Y-82252857D01*
X159802856Y-82310000D01*
X159688570Y-82424286D01*
X159631427Y-82538571D01*
X159574284Y-82767143D01*
X159574284Y-82938571D01*
X159631427Y-83167143D01*
X159688570Y-83281429D01*
X159802856Y-83395714D01*
X159974284Y-83452857D01*
X160259999Y-83452857D01*
X158602856Y-83395714D02*
X158717142Y-83452857D01*
X158945713Y-83452857D01*
X159059999Y-83395714D01*
X159117142Y-83281429D01*
X159117142Y-82824286D01*
X159059999Y-82710000D01*
X158945713Y-82652857D01*
X158717142Y-82652857D01*
X158602856Y-82710000D01*
X158545713Y-82824286D01*
X158545713Y-82938571D01*
X159117142Y-83052857D01*
X158088571Y-83395714D02*
X157974285Y-83452857D01*
X157745713Y-83452857D01*
X157631428Y-83395714D01*
X157574285Y-83281429D01*
X157574285Y-83224286D01*
X157631428Y-83110000D01*
X157745713Y-83052857D01*
X157917142Y-83052857D01*
X158031428Y-82995714D01*
X158088571Y-82881429D01*
X158088571Y-82824286D01*
X158031428Y-82710000D01*
X157917142Y-82652857D01*
X157745713Y-82652857D01*
X157631428Y-82710000D01*
X157059999Y-83452857D02*
X157059999Y-82652857D01*
X157059999Y-82252857D02*
X157117142Y-82310000D01*
X157059999Y-82367143D01*
X157002856Y-82310000D01*
X157059999Y-82252857D01*
X157059999Y-82367143D01*
X155974284Y-82652857D02*
X155974284Y-83624286D01*
X156031427Y-83738571D01*
X156088570Y-83795714D01*
X156202855Y-83852857D01*
X156374284Y-83852857D01*
X156488570Y-83795714D01*
X155974284Y-83395714D02*
X156088570Y-83452857D01*
X156317141Y-83452857D01*
X156431427Y-83395714D01*
X156488570Y-83338571D01*
X156545713Y-83224286D01*
X156545713Y-82881429D01*
X156488570Y-82767143D01*
X156431427Y-82710000D01*
X156317141Y-82652857D01*
X156088570Y-82652857D01*
X155974284Y-82710000D01*
X155402856Y-82652857D02*
X155402856Y-83452857D01*
X155402856Y-82767143D02*
X155345713Y-82710000D01*
X155231427Y-82652857D01*
X155059999Y-82652857D01*
X154945713Y-82710000D01*
X154888570Y-82824286D01*
X154888570Y-83452857D01*
X153859999Y-83395714D02*
X153974285Y-83452857D01*
X154202856Y-83452857D01*
X154317142Y-83395714D01*
X154374285Y-83281429D01*
X154374285Y-82824286D01*
X154317142Y-82710000D01*
X154202856Y-82652857D01*
X153974285Y-82652857D01*
X153859999Y-82710000D01*
X153802856Y-82824286D01*
X153802856Y-82938571D01*
X154374285Y-83052857D01*
X152774285Y-83452857D02*
X152774285Y-82252857D01*
X152774285Y-83395714D02*
X152888571Y-83452857D01*
X153117142Y-83452857D01*
X153231428Y-83395714D01*
X153288571Y-83338571D01*
X153345714Y-83224286D01*
X153345714Y-82881429D01*
X153288571Y-82767143D01*
X153231428Y-82710000D01*
X153117142Y-82652857D01*
X152888571Y-82652857D01*
X152774285Y-82710000D01*
X151288571Y-83452857D02*
X151288571Y-82252857D01*
X151288571Y-82710000D02*
X151174285Y-82652857D01*
X150945714Y-82652857D01*
X150831428Y-82710000D01*
X150774285Y-82767143D01*
X150717142Y-82881429D01*
X150717142Y-83224286D01*
X150774285Y-83338571D01*
X150831428Y-83395714D01*
X150945714Y-83452857D01*
X151174285Y-83452857D01*
X151288571Y-83395714D01*
X150317142Y-82652857D02*
X150031428Y-83452857D01*
X149745714Y-82652857D02*
X150031428Y-83452857D01*
X150145714Y-83738571D01*
X150202857Y-83795714D01*
X150317142Y-83852857D01*
X147688570Y-83338571D02*
X147745713Y-83395714D01*
X147917142Y-83452857D01*
X148031428Y-83452857D01*
X148202856Y-83395714D01*
X148317142Y-83281429D01*
X148374285Y-83167143D01*
X148431428Y-82938571D01*
X148431428Y-82767143D01*
X148374285Y-82538571D01*
X148317142Y-82424286D01*
X148202856Y-82310000D01*
X148031428Y-82252857D01*
X147917142Y-82252857D01*
X147745713Y-82310000D01*
X147688570Y-82367143D01*
X147002856Y-83452857D02*
X147117142Y-83395714D01*
X147174285Y-83338571D01*
X147231428Y-83224286D01*
X147231428Y-82881429D01*
X147174285Y-82767143D01*
X147117142Y-82710000D01*
X147002856Y-82652857D01*
X146831428Y-82652857D01*
X146717142Y-82710000D01*
X146659999Y-82767143D01*
X146602856Y-82881429D01*
X146602856Y-83224286D01*
X146659999Y-83338571D01*
X146717142Y-83395714D01*
X146831428Y-83452857D01*
X147002856Y-83452857D01*
X146088571Y-83452857D02*
X146088571Y-82652857D01*
X146088571Y-82767143D02*
X146031428Y-82710000D01*
X145917142Y-82652857D01*
X145745714Y-82652857D01*
X145631428Y-82710000D01*
X145574285Y-82824286D01*
X145574285Y-83452857D01*
X145574285Y-82824286D02*
X145517142Y-82710000D01*
X145402856Y-82652857D01*
X145231428Y-82652857D01*
X145117142Y-82710000D01*
X145059999Y-82824286D01*
X145059999Y-83452857D01*
X144488571Y-83452857D02*
X144488571Y-82652857D01*
X144488571Y-82767143D02*
X144431428Y-82710000D01*
X144317142Y-82652857D01*
X144145714Y-82652857D01*
X144031428Y-82710000D01*
X143974285Y-82824286D01*
X143974285Y-83452857D01*
X143974285Y-82824286D02*
X143917142Y-82710000D01*
X143802856Y-82652857D01*
X143631428Y-82652857D01*
X143517142Y-82710000D01*
X143459999Y-82824286D01*
X143459999Y-83452857D01*
X142888571Y-83452857D02*
X142888571Y-82652857D01*
X142888571Y-82252857D02*
X142945714Y-82310000D01*
X142888571Y-82367143D01*
X142831428Y-82310000D01*
X142888571Y-82252857D01*
X142888571Y-82367143D01*
X142488570Y-82652857D02*
X142031427Y-82652857D01*
X142317142Y-82252857D02*
X142317142Y-83281429D01*
X142259999Y-83395714D01*
X142145713Y-83452857D01*
X142031427Y-83452857D01*
X141802856Y-82652857D02*
X141345713Y-82652857D01*
X141631428Y-82252857D02*
X141631428Y-83281429D01*
X141574285Y-83395714D01*
X141459999Y-83452857D01*
X141345713Y-83452857D01*
X140488571Y-83395714D02*
X140602857Y-83452857D01*
X140831428Y-83452857D01*
X140945714Y-83395714D01*
X141002857Y-83281429D01*
X141002857Y-82824286D01*
X140945714Y-82710000D01*
X140831428Y-82652857D01*
X140602857Y-82652857D01*
X140488571Y-82710000D01*
X140431428Y-82824286D01*
X140431428Y-82938571D01*
X141002857Y-83052857D01*
X139460000Y-83395714D02*
X139574286Y-83452857D01*
X139802857Y-83452857D01*
X139917143Y-83395714D01*
X139974286Y-83281429D01*
X139974286Y-82824286D01*
X139917143Y-82710000D01*
X139802857Y-82652857D01*
X139574286Y-82652857D01*
X139460000Y-82710000D01*
X139402857Y-82824286D01*
X139402857Y-82938571D01*
X139974286Y-83052857D01*
X160688570Y-85552857D02*
X160688570Y-84924286D01*
X160745713Y-84810000D01*
X160859999Y-84752857D01*
X161088570Y-84752857D01*
X161202856Y-84810000D01*
X160688570Y-85495714D02*
X160802856Y-85552857D01*
X161088570Y-85552857D01*
X161202856Y-85495714D01*
X161259999Y-85381429D01*
X161259999Y-85267143D01*
X161202856Y-85152857D01*
X161088570Y-85095714D01*
X160802856Y-85095714D01*
X160688570Y-85038571D01*
X160288570Y-84752857D02*
X159831427Y-84752857D01*
X160117142Y-84352857D02*
X160117142Y-85381429D01*
X160059999Y-85495714D01*
X159945713Y-85552857D01*
X159831427Y-85552857D01*
X158517142Y-85552857D02*
X158517142Y-84352857D01*
X158517142Y-84924286D02*
X157831427Y-84924286D01*
X157831427Y-85552857D02*
X157831427Y-84352857D01*
X156745713Y-85552857D02*
X156745713Y-84924286D01*
X156802856Y-84810000D01*
X156917142Y-84752857D01*
X157145713Y-84752857D01*
X157259999Y-84810000D01*
X156745713Y-85495714D02*
X156859999Y-85552857D01*
X157145713Y-85552857D01*
X157259999Y-85495714D01*
X157317142Y-85381429D01*
X157317142Y-85267143D01*
X157259999Y-85152857D01*
X157145713Y-85095714D01*
X156859999Y-85095714D01*
X156745713Y-85038571D01*
X155659999Y-85495714D02*
X155774285Y-85552857D01*
X156002856Y-85552857D01*
X156117142Y-85495714D01*
X156174285Y-85438571D01*
X156231428Y-85324286D01*
X156231428Y-84981429D01*
X156174285Y-84867143D01*
X156117142Y-84810000D01*
X156002856Y-84752857D01*
X155774285Y-84752857D01*
X155659999Y-84810000D01*
X155145714Y-85552857D02*
X155145714Y-84352857D01*
X155031428Y-85095714D02*
X154688571Y-85552857D01*
X154688571Y-84752857D02*
X155145714Y-85210000D01*
X154231428Y-85495714D02*
X154117142Y-85552857D01*
X153888570Y-85552857D01*
X153774285Y-85495714D01*
X153717142Y-85381429D01*
X153717142Y-85324286D01*
X153774285Y-85210000D01*
X153888570Y-85152857D01*
X154059999Y-85152857D01*
X154174285Y-85095714D01*
X154231428Y-84981429D01*
X154231428Y-84924286D01*
X154174285Y-84810000D01*
X154059999Y-84752857D01*
X153888570Y-84752857D01*
X153774285Y-84810000D01*
X153202856Y-84752857D02*
X153202856Y-85952857D01*
X153202856Y-84810000D02*
X153088570Y-84752857D01*
X152859999Y-84752857D01*
X152745713Y-84810000D01*
X152688570Y-84867143D01*
X152631427Y-84981429D01*
X152631427Y-85324286D01*
X152688570Y-85438571D01*
X152745713Y-85495714D01*
X152859999Y-85552857D01*
X153088570Y-85552857D01*
X153202856Y-85495714D01*
X151602856Y-85552857D02*
X151602856Y-84924286D01*
X151659999Y-84810000D01*
X151774285Y-84752857D01*
X152002856Y-84752857D01*
X152117142Y-84810000D01*
X151602856Y-85495714D02*
X151717142Y-85552857D01*
X152002856Y-85552857D01*
X152117142Y-85495714D01*
X152174285Y-85381429D01*
X152174285Y-85267143D01*
X152117142Y-85152857D01*
X152002856Y-85095714D01*
X151717142Y-85095714D01*
X151602856Y-85038571D01*
X150517142Y-85495714D02*
X150631428Y-85552857D01*
X150859999Y-85552857D01*
X150974285Y-85495714D01*
X151031428Y-85438571D01*
X151088571Y-85324286D01*
X151088571Y-84981429D01*
X151031428Y-84867143D01*
X150974285Y-84810000D01*
X150859999Y-84752857D01*
X150631428Y-84752857D01*
X150517142Y-84810000D01*
X149545714Y-85495714D02*
X149660000Y-85552857D01*
X149888571Y-85552857D01*
X150002857Y-85495714D01*
X150060000Y-85381429D01*
X150060000Y-84924286D01*
X150002857Y-84810000D01*
X149888571Y-84752857D01*
X149660000Y-84752857D01*
X149545714Y-84810000D01*
X149488571Y-84924286D01*
X149488571Y-85038571D01*
X150060000Y-85152857D01*
X148060000Y-85552857D02*
X148060000Y-84352857D01*
X147660000Y-85210000D01*
X147260000Y-84352857D01*
X147260000Y-85552857D01*
X146174285Y-85552857D02*
X146174285Y-84924286D01*
X146231428Y-84810000D01*
X146345714Y-84752857D01*
X146574285Y-84752857D01*
X146688571Y-84810000D01*
X146174285Y-85495714D02*
X146288571Y-85552857D01*
X146574285Y-85552857D01*
X146688571Y-85495714D01*
X146745714Y-85381429D01*
X146745714Y-85267143D01*
X146688571Y-85152857D01*
X146574285Y-85095714D01*
X146288571Y-85095714D01*
X146174285Y-85038571D01*
X145602857Y-84752857D02*
X145602857Y-85552857D01*
X145602857Y-84867143D02*
X145545714Y-84810000D01*
X145431428Y-84752857D01*
X145260000Y-84752857D01*
X145145714Y-84810000D01*
X145088571Y-84924286D01*
X145088571Y-85552857D01*
X144002857Y-85495714D02*
X144117143Y-85552857D01*
X144345714Y-85552857D01*
X144460000Y-85495714D01*
X144517143Y-85438571D01*
X144574286Y-85324286D01*
X144574286Y-84981429D01*
X144517143Y-84867143D01*
X144460000Y-84810000D01*
X144345714Y-84752857D01*
X144117143Y-84752857D01*
X144002857Y-84810000D01*
X143488572Y-85552857D02*
X143488572Y-84352857D01*
X142974286Y-85552857D02*
X142974286Y-84924286D01*
X143031429Y-84810000D01*
X143145715Y-84752857D01*
X143317143Y-84752857D01*
X143431429Y-84810000D01*
X143488572Y-84867143D01*
X141945715Y-85495714D02*
X142060001Y-85552857D01*
X142288572Y-85552857D01*
X142402858Y-85495714D01*
X142460001Y-85381429D01*
X142460001Y-84924286D01*
X142402858Y-84810000D01*
X142288572Y-84752857D01*
X142060001Y-84752857D01*
X141945715Y-84810000D01*
X141888572Y-84924286D01*
X141888572Y-85038571D01*
X142460001Y-85152857D01*
X141431430Y-85495714D02*
X141317144Y-85552857D01*
X141088572Y-85552857D01*
X140974287Y-85495714D01*
X140917144Y-85381429D01*
X140917144Y-85324286D01*
X140974287Y-85210000D01*
X141088572Y-85152857D01*
X141260001Y-85152857D01*
X141374287Y-85095714D01*
X141431430Y-84981429D01*
X141431430Y-84924286D01*
X141374287Y-84810000D01*
X141260001Y-84752857D01*
X141088572Y-84752857D01*
X140974287Y-84810000D01*
X140574286Y-84752857D02*
X140117143Y-84752857D01*
X140402858Y-84352857D02*
X140402858Y-85381429D01*
X140345715Y-85495714D01*
X140231429Y-85552857D01*
X140117143Y-85552857D01*
X139260001Y-85495714D02*
X139374287Y-85552857D01*
X139602858Y-85552857D01*
X139717144Y-85495714D01*
X139774287Y-85381429D01*
X139774287Y-84924286D01*
X139717144Y-84810000D01*
X139602858Y-84752857D01*
X139374287Y-84752857D01*
X139260001Y-84810000D01*
X139202858Y-84924286D01*
X139202858Y-85038571D01*
X139774287Y-85152857D01*
X138688573Y-85552857D02*
X138688573Y-84752857D01*
X138688573Y-84981429D02*
X138631430Y-84867143D01*
X138574287Y-84810000D01*
X138460001Y-84752857D01*
X138345716Y-84752857D01*
X151917143Y-86567143D02*
X151860000Y-86510000D01*
X151745714Y-86452857D01*
X151460000Y-86452857D01*
X151345714Y-86510000D01*
X151288571Y-86567143D01*
X151231428Y-86681429D01*
X151231428Y-86795714D01*
X151288571Y-86967143D01*
X151974285Y-87652857D01*
X151231428Y-87652857D01*
X150488571Y-86452857D02*
X150374286Y-86452857D01*
X150260000Y-86510000D01*
X150202857Y-86567143D01*
X150145714Y-86681429D01*
X150088571Y-86910000D01*
X150088571Y-87195714D01*
X150145714Y-87424286D01*
X150202857Y-87538571D01*
X150260000Y-87595714D01*
X150374286Y-87652857D01*
X150488571Y-87652857D01*
X150602857Y-87595714D01*
X150660000Y-87538571D01*
X150717143Y-87424286D01*
X150774286Y-87195714D01*
X150774286Y-86910000D01*
X150717143Y-86681429D01*
X150660000Y-86567143D01*
X150602857Y-86510000D01*
X150488571Y-86452857D01*
X148945714Y-87652857D02*
X149631429Y-87652857D01*
X149288571Y-87652857D02*
X149288571Y-86452857D01*
X149402857Y-86624286D01*
X149517143Y-86738571D01*
X149631429Y-86795714D01*
X148260000Y-86967143D02*
X148374286Y-86910000D01*
X148431429Y-86852857D01*
X148488572Y-86738571D01*
X148488572Y-86681429D01*
X148431429Y-86567143D01*
X148374286Y-86510000D01*
X148260000Y-86452857D01*
X148031429Y-86452857D01*
X147917143Y-86510000D01*
X147860000Y-86567143D01*
X147802857Y-86681429D01*
X147802857Y-86738571D01*
X147860000Y-86852857D01*
X147917143Y-86910000D01*
X148031429Y-86967143D01*
X148260000Y-86967143D01*
X148374286Y-87024286D01*
X148431429Y-87081429D01*
X148488572Y-87195714D01*
X148488572Y-87424286D01*
X148431429Y-87538571D01*
X148374286Y-87595714D01*
X148260000Y-87652857D01*
X148031429Y-87652857D01*
X147917143Y-87595714D01*
X147860000Y-87538571D01*
X147802857Y-87424286D01*
X147802857Y-87195714D01*
X147860000Y-87081429D01*
X147917143Y-87024286D01*
X148031429Y-86967143D01*
D12*
X133959329Y-105364719D02*
G75*
G03X156405000Y-108910000I11495671J-45281D01*
G01*
X156403246Y-108936384D02*
G75*
G02X157155000Y-108410000I751754J-273616D01*
G01*
X133959329Y-105455281D02*
G75*
G02X156405000Y-101910000I11495671J45281D01*
G01*
X156403246Y-101883616D02*
G75*
G03X157155000Y-102410000I751754J273616D01*
G01*
X162855000Y-102410000D02*
X157155000Y-102410000D01*
X162855000Y-108410000D02*
X162855000Y-102410000D01*
X162855000Y-108410000D02*
X157155000Y-108410000D01*
X169995000Y-92709538D02*
G75*
G02X164445000Y-94254830I-2990000J-462D01*
G01*
X169995000Y-92710462D02*
G75*
G03X164445000Y-91165170I-2990000J462D01*
G01*
X169505000Y-92710000D02*
G75*
G03X169505000Y-92710000I-2500000J0D01*
G01*
X164445000Y-94255000D02*
X164445000Y-91165000D01*
X129725000Y-92710462D02*
G75*
G02X135275000Y-91165170I2990000J462D01*
G01*
X129725000Y-92709538D02*
G75*
G03X135275000Y-94254830I2990000J-462D01*
G01*
X135215000Y-92710000D02*
G75*
G03X135215000Y-92710000I-2500000J0D01*
G01*
X135275000Y-91165000D02*
X135275000Y-94255000D01*
D13*
X161440714Y-101038571D02*
X161297857Y-101086190D01*
X161250238Y-101133810D01*
X161202619Y-101229048D01*
X161202619Y-101371905D01*
X161250238Y-101467143D01*
X161297857Y-101514762D01*
X161393095Y-101562381D01*
X161774048Y-101562381D01*
X161774048Y-100562381D01*
X161440714Y-100562381D01*
X161345476Y-100610000D01*
X161297857Y-100657619D01*
X161250238Y-100752857D01*
X161250238Y-100848095D01*
X161297857Y-100943333D01*
X161345476Y-100990952D01*
X161440714Y-101038571D01*
X161774048Y-101038571D01*
X160916905Y-100562381D02*
X160345476Y-100562381D01*
X160631191Y-101562381D02*
X160631191Y-100562381D01*
X159488333Y-101562381D02*
X160059762Y-101562381D01*
X159774048Y-101562381D02*
X159774048Y-100562381D01*
X159869286Y-100705238D01*
X159964524Y-100800476D01*
X160059762Y-100848095D01*
X158476428Y-105517143D02*
X157333571Y-105517143D01*
X157905000Y-106088571D02*
X157905000Y-104945714D01*
X167743095Y-97122381D02*
X167743095Y-96122381D01*
X167505000Y-96122381D01*
X167362142Y-96170000D01*
X167266904Y-96265238D01*
X167219285Y-96360476D01*
X167171666Y-96550952D01*
X167171666Y-96693810D01*
X167219285Y-96884286D01*
X167266904Y-96979524D01*
X167362142Y-97074762D01*
X167505000Y-97122381D01*
X167743095Y-97122381D01*
X166219285Y-97122381D02*
X166790714Y-97122381D01*
X166505000Y-97122381D02*
X166505000Y-96122381D01*
X166600238Y-96265238D01*
X166695476Y-96360476D01*
X166790714Y-96408095D01*
X133453095Y-89202381D02*
X133453095Y-88202381D01*
X133215000Y-88202381D01*
X133072142Y-88250000D01*
X132976904Y-88345238D01*
X132929285Y-88440476D01*
X132881666Y-88630952D01*
X132881666Y-88773810D01*
X132929285Y-88964286D01*
X132976904Y-89059524D01*
X133072142Y-89154762D01*
X133215000Y-89202381D01*
X133453095Y-89202381D01*
X132500714Y-88297619D02*
X132453095Y-88250000D01*
X132357857Y-88202381D01*
X132119761Y-88202381D01*
X132024523Y-88250000D01*
X131976904Y-88297619D01*
X131929285Y-88392857D01*
X131929285Y-88488095D01*
X131976904Y-88630952D01*
X132548333Y-89202381D01*
X131929285Y-89202381D01*
M02*
